<svg width="24" height="25" viewBox="0 0 24 25" fill="none" xmlns="http://www.w3.org/2000/svg">
<path d="M24 11.5705H12.979V0.549561C15.8256 0.778363 18.4978 2.01297 20.5172 4.03233C22.5365 6.05168 23.7712 8.7239 24 11.5705Z" fill="#6D6D6D"/>
<path d="M24 13.5743C23.8006 15.8543 22.9546 18.0299 21.5613 19.8456C20.1681 21.6613 18.2856 23.0417 16.135 23.8245C13.9844 24.6072 11.6551 24.7599 9.4207 24.2646C7.18631 23.7692 5.13972 22.6465 3.52142 21.0281C1.90311 19.4098 0.78032 17.3632 0.28498 15.1289C-0.21036 12.8945 -0.05767 10.5651 0.725108 8.41453C1.50789 6.26392 2.88823 4.38142 4.70395 2.98821C6.51966 1.59501 8.6953 0.748985 10.9752 0.549561V12.5724C10.9752 12.8381 11.0808 13.093 11.2687 13.2809C11.4566 13.4688 11.7114 13.5743 11.9771 13.5743H24Z" fill="#6D6D6D"/>
</svg>
