<svg width="44" height="43" viewBox="0 0 44 43" fill="none" xmlns="http://www.w3.org/2000/svg">
<circle cx="22" cy="21.5" r="21.5" fill="#4299E1"/>
<path d="M22.25 25.1094C23.7343 25.1094 24.9375 23.9061 24.9375 22.4219C24.9375 20.9376 23.7343 19.7344 22.25 19.7344C20.7657 19.7344 19.5625 20.9376 19.5625 22.4219C19.5625 23.9061 20.7657 25.1094 22.25 25.1094Z" fill="white"/>
<path d="M30.6484 17.0469H27.1631C27.0371 17.0469 26.8809 16.9654 26.7591 16.8369L25.6136 15.0396C25.1475 14.3594 24.9375 14.3594 24.1816 14.3594H20.3184C19.5625 14.3594 19.3105 14.3594 18.8877 15.0401L17.7409 16.8369C17.6477 16.9385 17.5166 17.0469 17.3789 17.0469V16.375C17.3789 16.2859 17.3435 16.2005 17.2805 16.1375C17.2175 16.0745 17.1321 16.0391 17.043 16.0391H15.3633C15.2742 16.0391 15.1887 16.0745 15.1257 16.1375C15.0627 16.2005 15.0273 16.2859 15.0273 16.375V17.0469H13.8516C13.5843 17.0469 13.3279 17.1531 13.1389 17.3421C12.9499 17.5311 12.8438 17.7874 12.8438 18.0547V28.1328C12.8438 28.4001 12.9499 28.6564 13.1389 28.8454C13.3279 29.0344 13.5843 29.1406 13.8516 29.1406H30.6484C30.9157 29.1406 31.1721 29.0344 31.3611 28.8454C31.5501 28.6564 31.6562 28.4001 31.6562 28.1328V18.0547C31.6562 17.7874 31.5501 17.5311 31.3611 17.3421C31.1721 17.1531 30.9157 17.0469 30.6484 17.0469ZM22.4394 26.4489C21.6269 26.4871 20.8218 26.2786 20.13 25.8507C19.4381 25.4229 18.8919 24.7958 18.5631 24.0518C18.2342 23.3078 18.1382 22.4817 18.2875 21.6821C18.4368 20.8825 18.8245 20.1468 19.3997 19.5716C19.9749 18.9964 20.7106 18.6087 21.5102 18.4594C22.3098 18.31 23.1359 18.4061 23.8799 18.735C24.6239 19.0638 25.251 19.61 25.6789 20.3018C26.1067 20.9937 26.3152 21.7987 26.2771 22.6113C26.2289 23.6135 25.8092 24.562 25.0996 25.2715C24.3901 25.981 23.4417 26.4008 22.4394 26.4489Z" fill="white"/>
</svg>
