<svg width="24" height="25" viewBox="0 0 24 25" fill="none" xmlns="http://www.w3.org/2000/svg">
<path d="M11.0056 0.549561C11.9602 0.549764 12.8756 0.929154 13.5506 1.60428L22.8019 10.8556C23.569 11.6229 24 12.6635 24 13.7486C24 14.8336 23.569 15.8742 22.8019 16.6415L16.092 23.3514C15.3247 24.1186 14.284 24.5496 13.199 24.5496C12.1139 24.5496 11.0733 24.1186 10.306 23.3514L1.05472 14.1001C0.379593 13.4252 0.000203879 12.5097 0 11.5551V5.34919C0 4.07625 0.505674 2.85545 1.40578 1.95534C2.30589 1.05523 3.52669 0.549561 4.79963 0.549561H11.0056ZM6.59949 4.74924C5.99405 4.74905 5.41091 4.97771 4.96696 5.38939C4.52302 5.80106 4.25109 6.36533 4.20568 6.96907L4.19968 7.14906C4.19968 7.62369 4.34043 8.08767 4.60412 8.48232C4.86782 8.87697 5.24262 9.18456 5.68112 9.3662C6.11963 9.54783 6.60216 9.59536 7.06768 9.50276C7.53319 9.41016 7.9608 9.1816 8.29642 8.84598C8.63204 8.51036 8.8606 8.08276 8.9532 7.61724C9.0458 7.15172 8.99827 6.66919 8.81664 6.23069C8.635 5.79218 8.32741 5.41738 7.93276 5.15368C7.53811 4.88999 7.07413 4.74924 6.59949 4.74924Z" fill="#6D6D6D"/>
</svg>
