<svg width="15" height="17" viewBox="0 0 15 17" fill="none" xmlns="http://www.w3.org/2000/svg">
<path d="M14.9 6.052C14.8917 5.9785 14.8756 5.90609 14.852 5.836V5.764C14.8144 5.68124 14.763 5.60549 14.7 5.54L9.9 0.74C9.83451 0.676977 9.75876 0.625574 9.676 0.588C9.65214 0.584379 9.62786 0.584379 9.604 0.588C9.52256 0.541778 9.43289 0.511886 9.34 0.5H6.1C5.46348 0.5 4.85303 0.752856 4.40294 1.20294C3.95286 1.65303 3.7 2.26348 3.7 2.9V3.7H2.9C2.26348 3.7 1.65303 3.95286 1.20294 4.40294C0.752857 4.85303 0.5 5.46348 0.5 6.1V14.1C0.5 14.7365 0.752857 15.347 1.20294 15.7971C1.65303 16.2471 2.26348 16.5 2.9 16.5H9.3C9.93652 16.5 10.547 16.2471 10.9971 15.7971C11.4471 15.347 11.7 14.7365 11.7 14.1V13.3H12.5C13.1365 13.3 13.747 13.0471 14.1971 12.5971C14.6471 12.147 14.9 11.5365 14.9 10.9V6.052ZM10.1 3.228L12.172 5.3H10.9C10.6878 5.3 10.4843 5.21571 10.3343 5.06569C10.1843 4.91566 10.1 4.71217 10.1 4.5V3.228ZM10.1 14.1C10.1 14.3122 10.0157 14.5157 9.86569 14.6657C9.71566 14.8157 9.51217 14.9 9.3 14.9H2.9C2.68783 14.9 2.48434 14.8157 2.33431 14.6657C2.18429 14.5157 2.1 14.3122 2.1 14.1V6.1C2.1 5.88783 2.18429 5.68434 2.33431 5.53431C2.48434 5.38429 2.68783 5.3 2.9 5.3H3.7V10.9C3.7 11.5365 3.95286 12.147 4.40294 12.5971C4.85303 13.0471 5.46348 13.3 6.1 13.3H10.1V14.1ZM13.3 10.9C13.3 11.1122 13.2157 11.3157 13.0657 11.4657C12.9157 11.6157 12.7122 11.7 12.5 11.7H6.1C5.88783 11.7 5.68434 11.6157 5.53432 11.4657C5.38429 11.3157 5.3 11.1122 5.3 10.9V2.9C5.3 2.68783 5.38429 2.48434 5.53432 2.33431C5.68434 2.18429 5.88783 2.1 6.1 2.1H8.5V4.5C8.5 5.13652 8.75286 5.74697 9.20294 6.19706C9.65303 6.64714 10.2635 6.9 10.9 6.9H13.3V10.9Z" fill="#294C60"/>
</svg>
