<svg width="19" height="19" viewBox="0 0 19 19" fill="none" xmlns="http://www.w3.org/2000/svg">
<path d="M12.804 3.34436L15.656 6.19636M5.5 5.50036H2.5C2.23478 5.50036 1.98043 5.60572 1.79289 5.79325C1.60536 5.98079 1.5 6.23514 1.5 6.50036V16.5004C1.5 16.7656 1.60536 17.0199 1.79289 17.2075C1.98043 17.395 2.23478 17.5004 2.5 17.5004H13.5C13.7652 17.5004 14.0196 17.395 14.2071 17.2075C14.3946 17.0199 14.5 16.7656 14.5 16.5004V12.0004M16.909 2.09036C17.0964 2.27767 17.245 2.50005 17.3464 2.74481C17.4478 2.98958 17.5 3.25192 17.5 3.51686C17.5 3.7818 17.4478 4.04414 17.3464 4.28891C17.245 4.53367 17.0964 4.75605 16.909 4.94336L10.065 11.7874L6.5 12.5004L7.213 8.93536L14.057 2.09136C14.2442 1.9039 14.4664 1.75517 14.7111 1.6537C14.9558 1.55223 15.2181 1.5 15.483 1.5C15.7479 1.5 16.0102 1.55223 16.2549 1.6537C16.4996 1.75517 16.7218 1.9039 16.909 2.09136V2.09036Z" stroke="#4299E1" stroke-width="2" stroke-linecap="round" stroke-linejoin="round"/>
</svg>
