<svg width="114" height="70" viewBox="0 0 114 70" fill="none" xmlns="http://www.w3.org/2000/svg">
<rect x="0.451172" y="13.877" width="11.1396" height="46.906" transform="rotate(-45 0.451172 13.877)" fill="#4299E1"/>
<rect x="0.31488" y="36.084" width="11.1396" height="31.4169" transform="rotate(-45 0.31488 36.084)" fill="#4299E1"/>
<rect y="58.4692" width="11.1396" height="15.5686" transform="rotate(-45 0 58.4692)" fill="#4299E1"/>
<path d="M104.24 21.8867V24.6289H95.3333V21.8867H104.24ZM96.3762 14.9375V32H92.8606V14.9375H96.3762ZM106.747 14.9375V32H103.243V14.9375H106.747Z" fill="#4299E1"/>
<path d="M86.7144 27.5352C86.7144 27.2305 86.6675 26.957 86.5737 26.7148C86.4878 26.4648 86.3237 26.2383 86.0815 26.0352C85.8394 25.8242 85.4995 25.6172 85.062 25.4141C84.6245 25.2109 84.0581 25 83.3628 24.7812C82.5894 24.5312 81.855 24.25 81.1597 23.9375C80.4722 23.625 79.8628 23.2617 79.3315 22.8477C78.8081 22.4258 78.394 21.9375 78.0894 21.3828C77.7925 20.8281 77.644 20.1836 77.644 19.4492C77.644 18.7383 77.8003 18.0938 78.1128 17.5156C78.4253 16.9297 78.8628 16.4297 79.4253 16.0156C79.9878 15.5938 80.6519 15.2695 81.4175 15.043C82.1909 14.8164 83.0386 14.7031 83.9604 14.7031C85.2183 14.7031 86.3159 14.9297 87.2534 15.3828C88.1909 15.8359 88.9175 16.457 89.4331 17.2461C89.9565 18.0352 90.2183 18.9375 90.2183 19.9531H86.7261C86.7261 19.4531 86.6206 19.0156 86.4097 18.6406C86.2065 18.2578 85.894 17.957 85.4722 17.7383C85.0581 17.5195 84.5347 17.4102 83.9019 17.4102C83.2925 17.4102 82.7847 17.5039 82.3784 17.6914C81.9722 17.8711 81.6675 18.1172 81.4644 18.4297C81.2612 18.7344 81.1597 19.0781 81.1597 19.4609C81.1597 19.75 81.23 20.0117 81.3706 20.2461C81.519 20.4805 81.7378 20.6992 82.0269 20.9023C82.3159 21.1055 82.6714 21.2969 83.0933 21.4766C83.5151 21.6562 84.0034 21.832 84.5581 22.0039C85.4878 22.2852 86.3042 22.6016 87.0073 22.9531C87.7183 23.3047 88.312 23.6992 88.7886 24.1367C89.2651 24.5742 89.6245 25.0703 89.8667 25.625C90.1089 26.1797 90.23 26.8086 90.23 27.5117C90.23 28.2539 90.0854 28.918 89.7964 29.5039C89.5073 30.0898 89.0894 30.5859 88.5425 30.9922C87.9956 31.3984 87.3433 31.707 86.5854 31.918C85.8276 32.1289 84.98 32.2344 84.0425 32.2344C83.1987 32.2344 82.3667 32.125 81.5464 31.9062C80.7261 31.6797 79.98 31.3398 79.3081 30.8867C78.644 30.4336 78.1128 29.8555 77.7144 29.1523C77.3159 28.4492 77.1167 27.6172 77.1167 26.6562H80.644C80.644 27.1875 80.7261 27.6367 80.8901 28.0039C81.0542 28.3711 81.2847 28.668 81.5815 28.8945C81.8862 29.1211 82.2456 29.2852 82.6597 29.3867C83.0815 29.4883 83.5425 29.5391 84.0425 29.5391C84.6519 29.5391 85.1519 29.4531 85.5425 29.2812C85.9409 29.1094 86.2339 28.8711 86.4214 28.5664C86.6167 28.2617 86.7144 27.918 86.7144 27.5352Z" fill="#4299E1"/>
<path d="M68.4041 17.8555L63.7634 32H60.0251L66.365 14.9375H68.7439L68.4041 17.8555ZM72.2595 32L67.6072 17.8555L67.2322 14.9375H69.6345L76.0095 32H72.2595ZM72.0486 25.6484V28.4023H63.0369V25.6484H72.0486Z" fill="#4299E1"/>
<path d="M55.4141 26.3398H58.918C58.8477 27.4883 58.5312 28.5078 57.9688 29.3984C57.4141 30.2891 56.6367 30.9844 55.6367 31.4844C54.6445 31.9844 53.4492 32.2344 52.0508 32.2344C50.957 32.2344 49.9766 32.0469 49.1094 31.6719C48.2422 31.2891 47.5 30.7422 46.8828 30.0312C46.2734 29.3203 45.8086 28.4609 45.4883 27.4531C45.168 26.4453 45.0078 25.3164 45.0078 24.0664V22.8828C45.0078 21.6328 45.1719 20.5039 45.5 19.4961C45.8359 18.4805 46.3125 17.6172 46.9297 16.9062C47.5547 16.1953 48.3008 15.6484 49.168 15.2656C50.0352 14.8828 51.0039 14.6914 52.0742 14.6914C53.4961 14.6914 54.6953 14.9492 55.6719 15.4648C56.6562 15.9805 57.418 16.6914 57.957 17.5977C58.5039 18.5039 58.832 19.5352 58.9414 20.6914H55.4258C55.3867 20.0039 55.25 19.4219 55.0156 18.9453C54.7812 18.4609 54.4258 18.0977 53.9492 17.8555C53.4805 17.6055 52.8555 17.4805 52.0742 17.4805C51.4883 17.4805 50.9766 17.5898 50.5391 17.8086C50.1016 18.0273 49.7344 18.3594 49.4375 18.8047C49.1406 19.25 48.918 19.8125 48.7695 20.4922C48.6289 21.1641 48.5586 21.9531 48.5586 22.8594V24.0664C48.5586 24.9492 48.625 25.7266 48.7578 26.3984C48.8906 27.0625 49.0938 27.625 49.3672 28.0859C49.6484 28.5391 50.0078 28.8828 50.4453 29.1172C50.8906 29.3438 51.4258 29.457 52.0508 29.457C52.7852 29.457 53.3906 29.3398 53.8672 29.1055C54.3438 28.8711 54.707 28.5234 54.957 28.0625C55.2148 27.6016 55.3672 27.0273 55.4141 26.3398Z" fill="#4299E1"/>
<path d="M98.2864 52.293L101.685 37.9375H103.583L104.017 40.3281L100.396 55H98.3567L98.2864 52.293ZM96.5403 37.9375L99.3528 52.293L99.1184 55H96.845L93.0598 37.9375H96.5403ZM107.005 52.2344L109.782 37.9375H113.263L109.49 55H107.216L107.005 52.2344ZM104.65 37.9375L108.072 52.3516L107.978 55H105.939L102.294 40.3164L102.763 37.9375H104.65Z" fill="#4299E1"/>
<path d="M91.4019 46.0703V46.8789C91.4019 48.1758 91.2261 49.3398 90.8745 50.3711C90.5229 51.4023 90.0269 52.2812 89.3862 53.0078C88.7456 53.7266 87.98 54.2773 87.0894 54.6602C86.2065 55.043 85.2261 55.2344 84.1479 55.2344C83.0776 55.2344 82.0972 55.043 81.2065 54.6602C80.3237 54.2773 79.5581 53.7266 78.9097 53.0078C78.2612 52.2812 77.7573 51.4023 77.3979 50.3711C77.0464 49.3398 76.8706 48.1758 76.8706 46.8789V46.0703C76.8706 44.7656 77.0464 43.6016 77.3979 42.5781C77.7495 41.5469 78.2456 40.668 78.8862 39.9414C79.5347 39.2148 80.3003 38.6602 81.1831 38.2773C82.0737 37.8945 83.0542 37.7031 84.1245 37.7031C85.2026 37.7031 86.1831 37.8945 87.0659 38.2773C87.9565 38.6602 88.7222 39.2148 89.3628 39.9414C90.0112 40.668 90.5112 41.5469 90.8628 42.5781C91.2222 43.6016 91.4019 44.7656 91.4019 46.0703ZM87.8511 46.8789V46.0469C87.8511 45.1406 87.769 44.3438 87.605 43.6562C87.4409 42.9688 87.1987 42.3906 86.8784 41.9219C86.5581 41.4531 86.1675 41.1016 85.7065 40.8672C85.2456 40.625 84.7183 40.5039 84.1245 40.5039C83.5308 40.5039 83.0034 40.625 82.5425 40.8672C82.0894 41.1016 81.7026 41.4531 81.3823 41.9219C81.0698 42.3906 80.8315 42.9688 80.6675 43.6562C80.5034 44.3438 80.4214 45.1406 80.4214 46.0469V46.8789C80.4214 47.7773 80.5034 48.5742 80.6675 49.2695C80.8315 49.957 81.0737 50.5391 81.394 51.0156C81.7144 51.4844 82.105 51.8398 82.5659 52.082C83.0269 52.3242 83.5542 52.4453 84.1479 52.4453C84.7417 52.4453 85.269 52.3242 85.73 52.082C86.1909 51.8398 86.5776 51.4844 86.8901 51.0156C87.2026 50.5391 87.4409 49.957 87.605 49.2695C87.769 48.5742 87.8511 47.7773 87.8511 46.8789Z" fill="#4299E1"/>
<path d="M75.9041 52.2578V55H67.3142V52.2578H75.9041ZM68.4509 37.9375V55H64.9353V37.9375H68.4509Z" fill="#4299E1"/>
<path d="M55.0391 37.9375V55H51.5234V37.9375H55.0391ZM61.8359 45.2266V47.9688H54.0781V45.2266H61.8359ZM62.6562 37.9375V40.6914H54.0781V37.9375H62.6562Z" fill="#4299E1"/>
</svg>
