<svg width="24" height="20" viewBox="0 0 24 20" fill="none" xmlns="http://www.w3.org/2000/svg">
<path d="M15.5734 11.8323V12.6974C15.5734 13.2655 15.4615 13.828 15.2441 14.3528C15.0267 14.8777 14.7081 15.3545 14.3064 15.7562C13.9047 16.1579 13.4278 16.4765 12.903 16.6939C12.3782 16.9113 11.8157 17.0232 11.2476 17.0232H8.4272C8.41386 17.4963 8.27139 17.9568 8.0152 18.3548C7.75902 18.7528 7.39888 19.0732 6.97374 19.2813C6.61917 19.4584 6.2281 19.5503 5.83174 19.5495C5.24539 19.5529 4.67515 19.3578 4.21389 18.9958L1.00417 16.4782C0.69156 16.2355 0.438564 15.9247 0.264522 15.5693C0.0904796 15.2139 0 14.8234 0 14.4277C0 14.032 0.0904796 13.6416 0.264522 13.2862C0.438564 12.9308 0.69156 12.6199 1.00417 12.3773L4.21389 9.85971C4.60062 9.55107 5.0675 9.3594 5.55954 9.30729C6.05157 9.25517 6.54825 9.34478 6.99104 9.56556C7.58067 9.84758 8.03477 10.3514 8.25417 10.9671H14.6823C14.7981 10.9636 14.9134 10.9834 15.0213 11.0254C15.1293 11.0673 15.2278 11.1305 15.3109 11.2111C15.394 11.2918 15.46 11.3884 15.5051 11.4951C15.5502 11.6018 15.5734 11.7164 15.5734 11.8323Z" fill="#6D6D6D"/>
<path d="M24 5.89738C24.0001 6.29304 23.9097 6.68347 23.7358 7.03885C23.5618 7.39422 23.309 7.70512 22.9965 7.94779L19.7867 10.4654C19.319 10.8288 18.7439 11.0266 18.1516 11.0277C17.7552 11.0286 17.3642 10.9367 17.0096 10.7596C16.42 10.4775 15.9659 9.97367 15.7465 9.358H9.2924C9.06295 9.358 8.84289 9.26685 8.68064 9.1046C8.5184 8.94235 8.42725 8.7223 8.42725 8.49284V7.62769C8.42725 6.48042 8.883 5.38014 9.69424 4.5689C10.5055 3.75766 11.6058 3.30191 12.753 3.30191H15.5734C15.584 2.81825 15.7295 2.34715 15.9935 1.94179C16.2576 1.53642 16.6297 1.21292 17.0678 1.0078C17.5059 0.802673 17.9927 0.724085 18.4731 0.780904C18.9535 0.837723 19.4085 1.02769 19.7867 1.32936L22.9965 3.84696C23.309 4.08963 23.5618 4.40053 23.7358 4.75591C23.9097 5.11128 24.0001 5.50172 24 5.89738Z" fill="#6D6D6D"/>
</svg>
