<svg width="15" height="17" viewBox="0 0 15 17" fill="none" xmlns="http://www.w3.org/2000/svg">
<path fill-rule="evenodd" clip-rule="evenodd" d="M4.96863 0.968629C5.26869 0.668571 5.67565 0.5 6.1 0.5H9.3C9.72435 0.5 10.1313 0.668571 10.4314 0.968629C10.7314 1.26869 10.9 1.67565 10.9 2.1V3.7H13.2906C13.2963 3.69994 13.3019 3.69994 13.3076 3.7H14.1C14.5418 3.7 14.9 4.05817 14.9 4.5C14.9 4.94183 14.5418 5.3 14.1 5.3H14.0361L13.2997 14.1366C13.2902 14.7599 13.0385 15.3556 12.5971 15.7971C12.147 16.2471 11.5365 16.5 10.9 16.5H4.5C3.86348 16.5 3.25303 16.2471 2.80294 15.7971C2.3615 15.3556 2.10978 14.7599 2.10028 14.1366L1.36389 5.3H1.3C0.858172 5.3 0.5 4.94183 0.5 4.5C0.5 4.05817 0.858172 3.7 1.3 3.7H2.09243C2.09808 3.69994 2.10373 3.69994 2.10936 3.7H4.5V2.1C4.5 1.67565 4.66857 1.26869 4.96863 0.968629ZM2.96944 5.3L3.69724 14.0336C3.69908 14.0557 3.7 14.0778 3.7 14.1C3.7 14.3122 3.78429 14.5157 3.93431 14.6657C4.08434 14.8157 4.28783 14.9 4.5 14.9H10.9C11.1122 14.9 11.3157 14.8157 11.4657 14.6657C11.6157 14.5157 11.7 14.3122 11.7 14.1C11.7 14.0778 11.7009 14.0557 11.7028 14.0336L12.4306 5.3H2.96944ZM9.3 3.7H6.1V2.1H9.3V3.7ZM6.1 6.9C6.54183 6.9 6.9 7.25817 6.9 7.7V12.5C6.9 12.9418 6.54183 13.3 6.1 13.3C5.65817 13.3 5.3 12.9418 5.3 12.5V7.7C5.3 7.25817 5.65817 6.9 6.1 6.9ZM9.3 6.9C9.74183 6.9 10.1 7.25817 10.1 7.7V12.5C10.1 12.9418 9.74183 13.3 9.3 13.3C8.85817 13.3 8.5 12.9418 8.5 12.5V7.7C8.5 7.25817 8.85817 6.9 9.3 6.9Z" fill="#E62E2E"/>
</svg>
