<?xml version="1.0" encoding="utf-8"?><!-- Uploaded to: SVG Repo, www.svgrepo.com, Generator: SVG Repo Mixer Tools -->
<svg version="1.1" id="Uploaded to svgrepo.com" xmlns="http://www.w3.org/2000/svg" xmlns:xlink="http://www.w3.org/1999/xlink" 
	 width="800px" height="800px" viewBox="0 0 32 32" xml:space="preserve">
<style type="text/css">
	.blueprint_een{fill:#111918;}
</style>
<path class="blueprint_een" d="M10.5,5C7.462,5,5,7.462,5,10.5c0,3.038,2.462,5.5,5.5,5.5c3.038,0,5.5-2.462,5.5-5.5
	C16,7.462,13.538,5,10.5,5z M10.5,6c1.06,0,2.023,0.384,2.793,1H7.707C8.477,6.384,9.44,6,10.5,6z M10.5,15
	c-1.06,0-2.023-0.384-2.793-1h5.587C12.523,14.616,11.56,15,10.5,15z M14.238,13H6.762c-0.206-0.307-0.359-0.647-0.485-1h8.447
	C14.598,12.353,14.444,12.693,14.238,13z M15,10.5c0,0.171-0.032,0.334-0.051,0.5H6.051C6.032,10.834,6,10.671,6,10.5
	s0.032-0.334,0.051-0.5h8.899C14.968,10.166,15,10.329,15,10.5z M6.276,9c0.126-0.353,0.28-0.693,0.485-1h7.476
	c0.206,0.307,0.359,0.647,0.485,1H6.276z M30.615,4.212C30.438,4.073,30.221,4,30,4c-0.081,0-0.162,0.01-0.243,0.03l-3.484,0.871
	l-9.09-1.14C15.409,2.002,12.994,1,10.5,1C5.262,1,1,5.262,1,10.5c0,3.099,1.485,5.951,4,7.736V28c0,1.654,1.346,3,3,3h5
	c1.654,0,3-1.346,3-3v-5c0.552,0,1-0.448,1-1v-1c0-0.552-0.448-1-1-1v-1.773c0.428-0.303,0.823-0.633,1.182-0.988l9.091-1.14
	l3.484,0.871C29.838,16.99,29.919,17,30,17c0.221,0,0.438-0.073,0.615-0.212C30.858,16.599,31,16.308,31,16V5
	C31,4.692,30.858,4.401,30.615,4.212z M14,28c0,0.551-0.449,1-1,1H8c-0.551,0-1-0.449-1-1v-9.76C8.068,18.724,9.251,19,10.5,19
	c1.25,0,2.433-0.274,3.5-0.76V28z M26,14.118l-9.773,1.226l-0.247,0.265C14.541,17.151,12.595,18,10.5,18C6.365,18,3,14.635,3,10.5
	S6.365,3,10.5,3c2.095,0,4.041,0.849,5.479,2.392l0.247,0.265L26,6.882V14.118z M29,14.719l-2-0.5V6.781l2-0.5V14.719z"/>
</svg>